#!OML:ASF F:\VICON\USERDATA\INSTALL\rory3\rory3.ASF
:FULLY-SPECIFIED
:DEGREES
260
root 0.445445 17.5749 19.6552 -1.12067 3.53668 2.84525
lowerback 10.0789 -1.50844 -4.31929
upperback 0.543198 -2.40933 1.69076
thorax -4.83475 -1.07861 4.54303
lowerneck -16.3405 -2.47626 -2.1548
upperneck 19.6951 -3.01435 0.624694
head 8.90967 -1.50965 0.195824
rclavicle 2.4699e-014 -5.56597e-015
rhumerus -39.0267 -27.9463 -69.7685
rradius 21.8167
rwrist 9.05374
rhand -18.3662 22.3743
rfingers 7.12502
rthumb 7.91694 -7.45748
lclavicle 2.4699e-014 -5.56597e-015
lhumerus -19.2082 -5.78444 82.5743
lradius 32.3934
lwrist 7.77739
lhand -25.6354 23.0872
lfingers 7.12502
lthumb 0.897933 53.0651
rfemur -30.0494 2.0703 19.4888
rtibia 20.8473
rfoot -9.36349 -8.8223
rtoes -4.17995
lfemur 17.3644 -2.07087 -27.3927
ltibia 16.6354
lfoot -16.2443 -7.5927
ltoes -11.0906
261
root 0.430611 17.5743 19.8613 -1.19507 3.60418 2.53641
lowerback 10.1411 -1.54222 -4.09419
upperback 0.524335 -2.42564 1.79551
thorax -4.89224 -1.08844 4.53145
lowerneck -16.1781 -2.46418 -2.24511
upperneck 19.6709 -2.99457 0.698461
head 8.87433 -1.49991 0.240342
rclavicle -4.00054e-014 0
rhumerus -39.2502 -28.2642 -69.4501
rradius 21.576
rwrist 9.54182
rhand -18.4718 21.9803
rfingers 7.12502
rthumb 7.815 -7.8553
lclavicle -4.00054e-014 0
lhumerus -19.1797 -5.59995 82.6605
lradius 32.5923
lwrist 7.64966
lhand -30.5706 15.1661
lfingers 7.12502
lthumb -3.86848 45.1107
rfemur -30.201 1.89431 20.2199
rtibia 22.75
rfoot -8.81183 -8.21583
rtoes -4.40754
lfemur 16.9654 -2.34449 -27.0008
ltibia 17.4853
lfoot -14.9173 -9.3069
ltoes -7.68096
262
root 0.416797 17.5574 20.0683 -1.23042 3.82036 2.45832
lowerback 10.1492 -1.60646 -4.04625
upperback 0.531727 -2.50391 1.83097
thorax -4.88109 -1.12831 4.55221
lowerneck -16.0472 -2.4417 -2.31348
upperneck 19.509 -2.96156 0.762507
head 8.79681 -1.48318 0.279848
rclavicle 1.72446e-014 -3.26007e-014
rhumerus -39.3513 -28.4944 -69.2379
rradius 21.2619
rwrist 9.74797
rhand -18.5032 21.8199
rfingers 7.12502
rthumb 7.78467 -8.01674
lclavicle 1.72446e-014 -3.26007e-014
lhumerus -19.1285 -5.54516 82.7981
lradius 32.6908
lwrist 7.73753
lhand -32.0991 13.0134
lfingers 7.12502
lthumb -5.34443 42.926
rfemur -30.3992 1.94905 20.5013
rtibia 24.4874
rfoot -7.38583 -8.07176
rtoes -5.74164
lfemur 17.2222 -2.74132 -26.8399
ltibia 18.4774
lfoot -14.7366 -9.59735
ltoes -10.4773
263
root 0.408121 17.5602 20.2852 -1.25434 4.0624 2.50104
lowerback 10.0089 -1.66114 -4.04872
upperback 0.571182 -2.57286 1.80363
thorax -4.75488 -1.16727 4.52603
lowerneck -16.1345 -2.44032 -2.21583
upperneck 19.6079 -2.95018 0.613789
head 8.84229 -1.4862 0.213178
rclavicle 1.47101e-014 -3.97569e-015
rhumerus -39.5666 -29.1878 -68.7686
rradius 20.906
rwrist 10.4146
rhand -18.418 21.7408
rfingers 7.12502
rthumb 7.86692 -8.09284
lclavicle 1.47101e-014 -3.97569e-015
lhumerus -19.0862 -5.53571 82.9514
lradius 32.7147
lwrist 7.76217
lhand -31.7979 14.2745
lfingers 7.12502
lthumb -5.05362 44.1943
rfemur -30.6795 2.28033 20.3501
rtibia 26.0598
rfoot -5.54918 -8.06925
rtoes -6.00465
lfemur 17.2747 -3.27672 -26.8693
ltibia 19.5747
lfoot -13.6273 -10.2971
ltoes -11.947
264
root 0.399107 17.5598 20.5081 -1.40707 4.26853 2.45844
lowerback 10.0495 -1.71871 -3.95867
upperback 0.485288 -2.64221 1.79235
thorax -4.86509 -1.19868 4.47685
lowerneck -15.8796 -2.42497 -2.01545
upperneck 19.7522 -2.91483 0.287323
head 8.83627 -1.49112 0.076045
rclavicle 1.63997e-015 -4.77083e-015
rhumerus -40.1489 -29.7823 -68.1049
rradius 20.6195
rwrist 11.2369
rhand -18.4107 21.1632
rfingers 7.12502
rthumb 7.87391 -8.67015
lclavicle 1.63997e-015 -4.77083e-015
lhumerus -19.3963 -5.40572 83.1412
lradius 32.7138
lwrist 7.57063
lhand -31.4799 15.2496
lfingers 7.12502
lthumb -4.74654 45.1765
rfemur -30.9122 2.71669 20.193
rtibia 27.5847
rfoot -3.88903 -8.27307
rtoes -5.89098
lfemur 17.5494 -3.75548 -26.844
ltibia 20.7253
lfoot -12.5982 -10.7387
ltoes -13.8747
265
root 0.392264 17.555 20.7223 -1.47301 4.45513 2.30319
lowerback 10.0752 -1.83849 -3.79064
upperback 0.311837 -2.7804 1.88131
thorax -5.05089 -1.26122 4.50078
lowerneck -15.4492 -2.36187 -2.01044
upperneck 19.9326 -2.79014 0.0627007
head 8.81481 -1.45834 0.0184606
rclavicle -1.63997e-015 1.43125e-014
rhumerus -40.5197 -29.9743 -67.5476
rradius 20.2616
rwrist 11.7775
rhand -18.2927 20.8918
rfingers 7.12502
rthumb 7.98784 -8.93725
lclavicle -1.63997e-015 1.43125e-014
lhumerus -19.9397 -4.86915 83.3662
lradius 32.8872
lwrist 7.43137
lhand -31.7811 15.1894
lfingers 7.12502
lthumb -5.03736 45.1096
rfemur -31.0752 3.03209 20.2169
rtibia 28.8282
rfoot -3.07846 -8.10268
rtoes -5.79201
lfemur 17.5971 -4.24172 -26.6904
ltibia 22.2908
lfoot -11.8537 -11.1172
ltoes -14.5038
266
root 0.385909 17.5644 20.9387 -1.54919 4.49942 2.03032
lowerback 9.94452 -1.91356 -3.49898
upperback 0.273523 -2.83731 1.99273
thorax -5.02022 -1.29542 4.45533
lowerneck -15.3508 -2.28171 -2.04167
upperneck 20.2068 -2.64307 -0.078818
head 8.88779 -1.40793 -0.00720198
rclavicle 4.90998e-014 -2.06736e-014
rhumerus -40.7473 -30.5934 -66.8825
rradius 19.7808
rwrist 12.6671
rhand -18.3048 21.2199
rfingers 7.12502
rthumb 7.97613 -8.60959
lclavicle 4.90998e-014 -2.06736e-014
lhumerus -20.3867 -4.24422 83.5545
lradius 33.2103
lwrist 7.20917
lhand -31.8951 14.9479
lfingers 7.12502
lthumb -5.14744 44.8654
rfemur -31.1216 3.3086 20.4587
rtibia 29.9755
rfoot -2.52761 -7.20779
rtoes -4.23539
lfemur 17.2615 -4.61835 -26.4006
ltibia 24.2435
lfoot -10.4247 -11.9743
ltoes -13.6947
267
root 0.381619 17.5713 21.1566 -1.76291 4.41252 1.7534
lowerback 10.0174 -1.90589 -3.19571
upperback 0.30648 -2.78938 2.07989
thorax -5.04107 -1.27786 4.37182
lowerneck -15.508 -2.22656 -1.94151
upperneck 20.5072 -2.5368 -0.306302
head 9.01426 -1.3756 -0.0921946
rclavicle 2.93207e-014 -3.18055e-015
rhumerus -40.9106 -31.0795 -66.4293
rradius 19.5088
rwrist 13.2569
rhand -18.4898 21.3988
rfingers 7.12502
rthumb 7.79761 -8.43746
lclavicle 2.93207e-014 -3.18055e-015
lhumerus -20.6129 -3.71332 83.746
lradius 33.2549
lwrist 6.94467
lhand -31.4356 14.7299
lfingers 7.12502
lthumb -4.70373 44.6577
rfemur -30.8763 3.44321 20.8338
rtibia 31.0536
rfoot -1.98911 -6.24994
rtoes 0.0515253
lfemur 16.7371 -4.74796 -26.0623
ltibia 26.4646
lfoot -8.24724 -13.3418
ltoes -12.3657
268
root 0.380725 17.5645 21.3704 -1.99403 4.29165 1.34048
lowerback 10.1944 -1.92722 -2.68017
upperback 0.360315 -2.75614 2.1786
thorax -5.10602 -1.27148 4.18681
lowerneck -15.7238 -2.1515 -1.84981
upperneck 20.6523 -2.39886 -0.530417
head 9.0987 -1.32866 -0.170488
rclavicle 1.7344e-014 1.03368e-014
rhumerus -40.9645 -31.7378 -65.9749
rradius 19.2547
rwrist 13.9822
rhand -18.3375 21.2675
rfingers 7.12502
rthumb 7.94457 -8.56319
lclavicle 1.7344e-014 1.03368e-014
lhumerus -20.7851 -3.29456 83.8628
lradius 33.1686
lwrist 6.67001
lhand -30.8914 15.0269
lfingers 7.12502
lthumb -4.17827 44.9656
rfemur -30.4131 3.35088 21.5091
rtibia 31.9484
rfoot -1.84581 -5.88206
rtoes 3.77543
lfemur 16.0736 -4.72807 -25.5156
ltibia 28.92
lfoot -5.81933 -14.6173
ltoes -12.6742
269
root 0.371121 17.5673 21.6021 -2.32315 4.09716 0.69156
lowerback 10.0929 -1.95865 -2.08583
upperback 0.499517 -2.7178 2.37206
thorax -4.92439 -1.27051 4.03911
lowerneck -15.6576 -2.09499 -1.91072
upperneck 20.6839 -2.3036 -0.542444
head 9.09762 -1.29054 -0.152162
rclavicle -1.24737e-014 -1.03368e-014
rhumerus -41.1464 -32.8653 -65.1021
rradius 18.7143
rwrist 15.2717
rhand -18.2362 21.4401
rfingers 7.12502
rthumb 8.04233 -8.38687
lclavicle -1.24737e-014 -1.03368e-014
lhumerus -21.0614 -2.62797 83.9714
lradius 33.1454
lwrist 6.44242
lhand -31.2578 15.6987
lfingers 7.12502
lthumb -4.53206 45.6302
rfemur -29.7498 3.29392 22.5802
rtibia 32.736
rfoot -1.82356 -5.6445
rtoes 5.14023
lfemur 15.4407 -4.51022 -24.5853
ltibia 31.4626
lfoot -3.32214 -15.8328
ltoes -14.4706
270
root 0.353286 17.5849 21.8293 -2.57428 3.88123 -0.22534
lowerback 10.0143 -1.96132 -1.28718
upperback 0.473804 -2.61566 2.63566
thorax -4.93917 -1.23459 3.84809
lowerneck -15.2787 -2.06987 -1.93722
upperneck 20.7309 -2.26803 -0.55909
head 9.04409 -1.27855 -0.145063
rclavicle -1.13804e-014 1.98785e-014
rhumerus -41.6002 -33.0925 -64.6236
rradius 18.6004
rwrist 15.4777
rhand -18.0787 21.995
rfingers 7.12502
rthumb 8.19439 -7.82606
lclavicle -1.13804e-014 1.98785e-014
lhumerus -21.6011 -2.08381 84.1026
lradius 33.1384
lwrist 6.22201
lhand -31.6673 16.8959
lfingers 7.12502
lthumb -4.9275 46.8186
rfemur -29.2553 3.45632 23.9211
rtibia 33.4592
rfoot -1.78726 -5.11279
rtoes 6.70992
lfemur 14.557 -4.19044 -23.2102
ltibia 33.9795
lfoot -0.275997 -16.898
ltoes -14.9522
271
root 0.335202 17.6036 22.0468 -2.70882 3.75927 -0.536646
lowerback 10.0615 -1.9278 -1.13161
upperback 0.371977 -2.5452 2.76286
thorax -5.07874 -1.19829 3.89033
lowerneck -14.9546 -2.04942 -2.02521
upperneck 20.7309 -2.23568 -0.51821
head 8.98603 -1.26631 -0.108924
rclavicle 4.64659e-015 8.74653e-015
rhumerus -41.934 -32.745 -64.6069
rradius 18.8787
rwrist 14.9229
rhand -18.0654 21.8936
rfingers 7.12502
rthumb 8.20726 -7.92697
lclavicle 4.64659e-015 8.74653e-015
lhumerus -22.2027 -1.81727 84.2864
lradius 33.0824
lwrist 6.02201
lhand -32.0538 18.3533
lfingers 7.12502
lthumb -5.30071 48.267
rfemur -28.7833 3.7188 24.4877
rtibia 33.986
rfoot -2.07375 -4.85876
rtoes 9.38344
lfemur 13.4168 -3.84538 -22.4638
ltibia 36.4996
lfoot 3.0357 -17.9525
ltoes -14.4804
272
root 0.322325 17.6194 22.2625 -2.84304 3.70921 -0.588231
lowerback 10.097 -1.89577 -1.08349
upperback 0.316858 -2.49693 2.74763
thorax -5.1628 -1.1736 3.84412
lowerneck -14.8407 -2.04088 -2.05067
upperneck 20.7818 -2.22535 -0.497342
head 8.9831 -1.26158 -0.0954326
rclavicle 1.4884e-014 -3.18055e-015
rhumerus -42.2452 -32.98 -64.3325
rradius 18.9566
rwrist 15.0315
rhand -17.9027 21.6233
rfingers 7.12502
rthumb 8.36424 -8.19109
lclavicle 1.4884e-014 -3.18055e-015
lhumerus -22.7361 -1.83418 84.4394
lradius 33.0037
lwrist 6.10985
lhand -32.4846 18.6173
lfingers 7.12502
lthumb -5.7166 48.5202
rfemur -28.0927 3.9314 24.7285
rtibia 34.3527
rfoot -1.91679 -5.47637
rtoes 11.2112
lfemur 12.1715 -3.60685 -22.0657
ltibia 39.0388
lfoot 6.19964 -19.1608
ltoes -12.8804
